<?xml version="1.0" encoding="utf-8"?>
<!-- Generator: Adobe Illustrator 19.2.1, SVG Export Plug-In . SVG Version: 6.00 Build 0)  -->
<svg version="1.1" baseProfile="tiny" id="Layer_1" xmlns="http://www.w3.org/2000/svg" xmlns:xlink="http://www.w3.org/1999/xlink"
	 x="0px" y="0px" width="122.5px" height="36px" viewBox="0 0 122.5 36" xml:space="preserve">
<g>
	<path fill="#FFFFFF" d="M5.4,11.2c0.4,0.6,0.5,1.1,0.7,2.1c1.4-1.4,3.2-2.1,5.2-2.1c1.8,0,3.2,0.6,4.3,1.7c0.3,0.3,0.6,0.7,0.8,1
		c1.9-2,3.7-2.8,6-2.8c1.7,0,3.2,0.5,4.2,1.3c1.2,1,1.6,2.3,1.6,5.2v15h-5.4v-14c0-2.5-0.3-3-1.7-3c-1,0-2.5,0.7-3.7,1.8v15.2h-5.2
		V19c0-2.6-0.4-3.3-1.9-3.3c-1,0-2.4,0.5-3.6,1.6v15.4H1.2V18c0-3.1-0.2-4.4-0.8-5.4L5.4,11.2z"/>
	<path fill="#FFFFFF" d="M48,14.4c1.7,2,2.4,4.3,2.4,7.7c0,3.6-0.8,6.1-2.7,8.2c-1.6,1.8-3.7,2.9-7,2.9c-5.7,0-9.5-4.3-9.5-10.9
		c0-6.7,3.8-11.1,9.5-11.1C43.8,11.2,46.1,12.2,48,14.4z M38,17.4c-0.4,1.1-0.6,2.6-0.6,4.7c0,2.4,0.2,4.3,0.7,5.3
		c0.5,1.2,1.7,1.7,2.8,1.7c2.4,0,3.4-2.1,3.4-7.1c0-2.9-0.4-4.7-1.1-5.7c-0.5-0.7-1.4-1.1-2.4-1.1C39.5,15.3,38.5,16.1,38,17.4z"/>
	<path fill="#FFFFFF" d="M68.2,11.6v3.8l-9.3,13.5h9.7l-1.3,3.8H51.7v-3.4l9.9-13.8h-9.1v-3.9H68.2z"/>
	<path fill="#FFFFFF" d="M77.6,5.8c0,1.9-1.5,3.4-3.4,3.4c-1.9,0-3.4-1.5-3.4-3.4c0-1.9,1.6-3.4,3.5-3.4C76.1,2.3,77.6,3.9,77.6,5.8
		z M76.9,11.1v21.6h-5.5V12L76.9,11.1z"/>
	<path fill="#FFFFFF" d="M87,7.7v16.5c0,3.6,0,4.1,0.4,4.7c0.2,0.4,0.7,0.6,1.1,0.6c0.2,0,0.3,0,0.6-0.1l0.9,3.3
		c-0.9,0.4-2.1,0.6-3.3,0.6c-2.4,0-4.3-1.1-4.9-2.9c-0.4-1.1-0.5-1.7-0.5-4.8V9.8c0-2.8-0.1-4.5-0.3-6.4l5.7-1.3
		C86.9,3.3,87,4.7,87,7.7z"/>
	<path fill="#FFFFFF" d="M98.5,7.7v16.5c0,3.6,0,4.1,0.4,4.7c0.2,0.4,0.6,0.6,1.1,0.6c0.2,0,0.3,0,0.6-0.1l0.9,3.3
		c-0.9,0.4-2.1,0.6-3.3,0.6c-2.4,0-4.3-1.1-4.9-2.9c-0.4-1.1-0.5-1.7-0.5-4.8V9.8c0-2.8-0.1-4.5-0.3-6.4l5.7-1.3
		C98.4,3.3,98.5,4.7,98.5,7.7z"/>
	<path fill="#FFFFFF" d="M107.2,12.4c2.1-0.9,3.8-1.2,5.8-1.2c3.6,0,6,1.3,6.8,3.7c0.3,0.9,0.4,1.5,0.4,3.8l-0.1,7.1
		c0,0.1,0,0.3,0,0.4c0,2.3,0.4,3.1,2,4.3l-2.9,3.4c-1.3-0.5-2.4-1.5-3-2.6c-0.4,0.4-0.9,0.8-1.3,1.1c-1,0.7-2.5,1.2-4.3,1.2
		c-4.7,0-7.3-2.4-7.3-6.6c0-5,3.4-7.3,10.2-7.3c0.4,0,0.8,0,1.2,0v-0.9c0-2.4-0.5-3.1-2.5-3.1c-1.8,0-3.8,0.9-6.1,2.4l-2.4-4
		C104.8,13.4,105.7,13,107.2,12.4z M114.3,23.5c-3.8,0-5.2,0.7-5.2,3.2c0,1.6,1,2.8,2.5,2.8c1,0,2.1-0.5,2.9-1.4l0.1-4.5H114.3z"/>
</g>
</svg>
