<?xml version="1.0" encoding="utf-8"?>
<!-- Generator: Adobe Illustrator 19.2.1, SVG Export Plug-In . SVG Version: 6.00 Build 0)  -->
<svg version="1.1" baseProfile="tiny" id="Layer_1" xmlns="http://www.w3.org/2000/svg" xmlns:xlink="http://www.w3.org/1999/xlink"
	 x="0px" y="0px" width="102.3px" height="36px" viewBox="0 0 102.3 36" xml:space="preserve">
<g>
	<g>
		<path fill="#FFFFFF" d="M18,15.3c-0.1,0-0.1,0-0.2,0c-0.3,0-0.6,0-0.8-0.3c-0.2-0.2-0.2-0.9-0.2-1.3v-0.2V4.3c0-0.2,0-0.4,0-0.6
			c0-0.4,0-0.7,0.2-0.9c0.1-0.1,0.3-0.2,0.5-0.1c0.1,0,0.3,0,0.4,0c0.2,0,0.6,0,0.6-0.5c0-0.1-0.1-0.2-0.1-0.3
			c-0.1-0.1-0.2-0.1-0.3-0.1c-0.1,0-0.2,0-0.3,0h-2.5c-0.2,0-0.6,0-0.7,0.4l-4.5,10.3l-4-9.9C6,2.3,5.9,1.9,5.4,1.9H2.8
			c-0.1,0-0.2,0-0.3,0c-0.1,0-0.2,0-0.3,0.1C2.1,2,2.1,2.1,2.1,2.2c0,0.4,0.4,0.5,0.6,0.5c0.5,0,0.8,0,0.9,0.1
			C3.8,2.9,3.8,3,3.8,3.4c0,0.1,0,0.3,0,0.5l-0.7,9.9C3,14.9,3,15.3,1.8,15.3c-0.2,0-0.7,0-0.7,0.4c0,0.1,0.1,0.3,0.2,0.3
			c0.1,0.1,0.2,0.1,0.3,0.1c0.7,0,1.3-0.1,2-0.1c0.7,0,1.3,0.1,2,0.1c0.1,0,0.2,0,0.4,0c0.1,0,0.3-0.2,0.2-0.3
			c0-0.4-0.5-0.4-0.7-0.4H5.4c-1.2,0-1.4-0.6-1.4-1.6c0-0.2,0-0.5,0-0.8l0.6-9.1l4.4,11.2c0,0.1,0.1,0.5,0.4,0.5
			c0.3,0,0.4-0.3,0.4-0.5l4.9-11.5v10v0.3c0,0.4,0,1-0.3,1.2c-0.2,0.2-0.7,0.3-1,0.3c0,0-0.1,0-0.2,0c-0.2,0-0.6,0-0.6,0.4
			c0,0.4,0.4,0.4,0.5,0.4c0.9,0,1.8-0.1,2.7-0.1c0.7,0,1.4,0.1,2.2,0.1c0.2,0,0.5,0,0.5-0.4C18.6,15.3,18.2,15.3,18,15.3"/>
		<path fill="#FFFFFF" d="M23.4,11.8l2-1c0.1,0,0.2-0.1,0.2-0.1c0,0,0,0,0,0.1c0,0,0,0.1,0,0.2c0,0.1,0,0.2,0,0.2v1.3
			c0,0.7,0,1.1-0.5,1.6c-0.5,0.5-1.3,0.9-2,0.9c-0.8,0-1.4-0.4-1.4-1.2C21.7,12.8,22.6,12.3,23.4,11.8 M29.1,14.4
			c-0.2,0-0.3,0.2-0.4,0.3c-0.1,0.1-0.3,0.3-0.6,0.3c-0.3,0-0.5-0.2-0.6-0.6c-0.1-0.3-0.1-0.8-0.1-1v-0.1V8c0-0.1,0-0.3,0-0.4
			c0-0.4-0.1-0.9-0.5-1.3c-0.5-0.5-1.4-0.6-2.1-0.6c-1.5,0-3,0.6-4.1,1.6c-0.4,0.4-1,1-1,1.7c0,0.1,0,0.2,0.1,0.3
			c0.1,0.1,0.2,0.1,0.3,0.1c0.3,0,0.8-0.2,1-0.3c0.4-0.2,0.5-0.5,0.7-0.9c0.5-1.1,1.2-1.8,2.5-1.8c1.3,0,1.3,0.8,1.3,1.9v1
			c0,0.9,0,0.7-0.8,1.2l-1.7,0.8c-1.2,0.6-3.3,1.5-3.4,3.2c0,1.2,1.1,1.9,2.2,1.9c1,0,1.9-0.4,2.5-0.9c0.3-0.2,0.6-0.4,0.8-0.6
			c0.1-0.1,0.2-0.1,0.2-0.2c0,0,0.1,0,0.1,0v0c0,0,0,0,0,0c0.2,0.2,0.4,1.5,1.5,1.5c0.6,0,1.2-0.4,1.6-0.7c0.2-0.1,0.6-0.4,0.6-0.8
			C29.4,14.5,29.3,14.4,29.1,14.4"/>
		<path fill="#FFFFFF" d="M39,14c-0.2,0-0.3,0.2-0.4,0.3c-0.7,0.6-1.6,0.9-2.5,0.9c-2.4,0-4.1-2.3-4.1-4.5c0-1.3,0.6-2.7,1.6-3.5
			c0.6-0.5,1.4-0.9,2.2-0.9c0.8,0,1.4,0.6,1.8,1.2c0.4,0.6,0.7,1.2,1.1,1.3c0.4,0,0.4-0.5,0.4-0.8c0-0.2,0-0.4,0-0.5
			c0-0.1,0-0.3,0-0.5c0-0.2,0-0.5-0.2-0.6c-0.7-0.5-1.9-0.8-2.8-0.8c-3,0-5.9,2.4-5.9,5.5c0,2.8,2.3,5.1,5.1,5.1
			c1.2,0,2.4-0.4,3.3-1.1c0.2-0.2,0.7-0.5,0.7-0.9C39.3,14.1,39.2,14,39,14"/>
		<path fill="#FFFFFF" d="M45.9,5.1c0.1,0.1,0.2,0.5,0.3,0.6l1.5,3.8c0,0.1,0.1,0.4,0.1,0.5c0,0,0,0-0.1,0c-0.1,0-0.2,0-0.2,0
			c-0.1,0-0.2,0-0.2,0h-2.6c-0.1,0-0.2,0-0.4,0c-0.1,0-0.2,0-0.3,0c0,0-0.1,0-0.1,0c0,0,0-0.2,0.1-0.2h0l1.5-4.1
			c0-0.1,0.1-0.2,0.1-0.4C45.8,5.3,45.9,5.2,45.9,5.1C45.9,5.2,45.9,5.1,45.9,5.1 M53.2,15.3c-1,0-1.4-1.2-1.7-2.1L47,2
			c-0.1-0.1-0.1-0.5-0.4-0.5c-0.4,0-0.4,0.4-0.5,0.6l-4.3,11.2c-0.2,0.4-0.6,1.5-0.8,1.7c-0.3,0.3-0.6,0.3-1,0.3
			c-0.2,0-0.7,0-0.7,0.4c0,0.3,0.3,0.4,0.5,0.4c0.2,0,0.3,0,0.4,0c0.6,0,1.3-0.1,1.9-0.1c0.6,0,1.2,0.1,1.9,0.1c0.1,0,0.3,0,0.4,0
			c0.1,0,0.3-0.1,0.3-0.3c0-0.4-0.4-0.4-0.6-0.4h-0.1c-0.2,0-0.6,0-0.9-0.1c-0.3-0.1-0.5-0.3-0.5-0.6c0-0.4,0.2-0.8,0.3-1.2l0.7-1.7
			c0.4-0.8,0.1-0.8,1-0.8h3c0.5,0,0.7,0,0.8,0.1c0.1,0.1,0.2,0.4,0.4,1l0.7,1.7c0.1,0.3,0.3,0.8,0.3,1.1c0,0.3-0.2,0.4-0.4,0.5
			c-0.3,0.1-0.6,0.1-0.9,0.1c-0.2,0-0.7,0-0.8,0.4c0,0.3,0.3,0.3,0.5,0.3c0.8,0,1.7-0.1,2.5-0.1c1,0,2,0.1,2.9,0.1
			c0.1,0,0.4,0,0.4-0.3C53.9,15.3,53.4,15.3,53.2,15.3"/>
		<path fill="#FFFFFF" d="M61,5.8c-0.8,0-1.4,0.5-1.9,0.9c-0.2,0.2-0.4,0.5-0.5,0.6c-0.1,0.1-0.1,0.1-0.2,0.2c0,0,0,0,0,0
			c0,0,0-0.1,0-0.2c0-0.1,0-0.1,0-0.2V6.2V6.1c0-0.1,0-0.2,0-0.2c0-0.1-0.1-0.1-0.3-0.1c-0.3,0-0.4,0.2-0.5,0.3
			c-0.3,0.4-1.3,1-1.8,1.1c-0.2,0.1-0.6,0.1-0.6,0.5c0,0.2,0.2,0.3,0.4,0.3h0.3c0.2,0,0.5,0,0.6,0.1c0.2,0.1,0.2,0.8,0.2,1.2v0.2
			v4.2c0,0.2,0,0.5,0,0.7c0,0.6-0.1,1-0.9,1c-0.1,0-0.3,0-0.4,0c-0.2,0-0.3,0.2-0.3,0.4c0,0.3,0.3,0.3,0.4,0.3
			c0.7,0,1.4-0.1,2.1-0.1c0.7,0,1.4,0.1,2.1,0.1c0.1,0,0.2,0,0.3-0.1c0.1-0.1,0.1-0.2,0.1-0.3c0-0.4-0.5-0.4-0.7-0.4
			c-0.9-0.1-0.9-0.4-0.9-1c0-0.2,0-0.4,0-0.7v-3.5V9.9c0-0.8,0-1.3,0.5-2c0.3-0.3,0.6-0.8,1.1-0.8c0.5,0,0.6,0.8,1.4,0.8
			c0.6,0,1-0.4,1-1C62.3,6.3,61.7,5.8,61,5.8"/>
		<path fill="#FFFFFF" d="M68.9,14.4c-0.2,0-0.3,0.2-0.6,0.4c-0.3,0.2-0.6,0.4-1,0.4c-0.6,0-0.9-0.3-1-0.8c-0.2-0.5-0.2-1.1-0.2-1.6
			v-0.1h0V7.1c0-0.4,0.1-0.4,0.3-0.4c0.1,0,0.2,0,0.4,0H68c0.2,0,0.3,0,0.4,0c0.1,0,0.2,0,0.3-0.1c0.1-0.1,0.1-0.2,0.1-0.4
			c0-0.1,0-0.2,0-0.3c0-0.1-0.2-0.2-0.3-0.2h-2.2c-0.3,0-0.2,0-0.3-0.3V3.9c0-0.1,0-0.4-0.3-0.4c-0.2,0-0.3,0.2-0.3,0.3
			C65,4.8,64.3,5.3,63.4,6c-0.1,0.1-0.3,0.2-0.3,0.4c0,0.3,0.3,0.3,0.5,0.3c0.1,0,0.3,0,0.3,0c0.1,0,0.2,0,0.2,0
			c0.2,0,0.2-0.1,0.2,0.3v5.7c0,0.2,0,0.4,0,0.7c0,0.8,0,1.6,0.5,2.2c0.4,0.5,1.1,0.7,1.7,0.7c0.8,0,1.6-0.3,2.1-0.9
			c0.2-0.1,0.5-0.4,0.5-0.7C69.1,14.6,69,14.4,68.9,14.4"/>
		<path fill="#FFFFFF" d="M81.1,15.3c-0.9-0.1-0.9-0.4-0.9-1c0-0.2,0-0.4,0-0.7v-3.6c0-0.1,0-0.1,0-0.2c0-1,0-2.2-0.7-3.1
			c-0.6-0.8-1.7-1.1-2.7-1.1c-1.5,0-2.4,0.5-3.3,1.4c0,0-0.2,0.1-0.2,0.1c0,0,0,0-0.1-0.1V0.6V0.5c0-0.1,0-0.2,0-0.2
			c0-0.1-0.2-0.1-0.3-0.1c-0.2,0-0.4,0.2-0.5,0.3c-0.5,0.3-1.3,0.6-2,0.7c-0.1,0-0.4,0.1-0.4,0.4c0,0.3,0.3,0.3,0.5,0.3
			c0.1,0,0.2,0,0.2,0c0.7,0,0.8,0.4,0.8,1c0,0.2,0,0.5,0,0.7v10.2c0,0.2,0,0.5,0,0.7c0,0.6-0.1,0.9-0.9,1c-0.1,0-0.3,0-0.4,0
			c-0.1,0-0.3,0.2-0.3,0.4c0,0.3,0.3,0.3,0.4,0.3c0.7,0,1.4-0.1,2.1-0.1c0.7,0,1.4,0.1,2.1,0.1c0.1,0,0.2,0,0.3-0.1
			c0.1-0.1,0.1-0.2,0.1-0.3c0-0.4-0.5-0.4-0.7-0.4c-0.9-0.1-0.9-0.4-0.9-1c0-0.2,0-0.4,0-0.7l0-4.1c0-0.9,0-1.3,0.6-2
			C74.5,7,75.2,6.6,76,6.6c0.9,0,1.6,0.3,2,1c0.4,0.6,0.4,1.4,0.4,2.1v3.9c0,0.2,0,0.5,0,0.7c0,0.6-0.1,0.9-0.9,1
			c-0.1,0-0.3,0-0.4,0c-0.1,0-0.3,0.2-0.3,0.4c0,0.3,0.3,0.3,0.4,0.3c0.7,0,1.4-0.1,2.1-0.1c0.7,0,1.4,0.1,2.1,0.1
			c0.1,0,0.2,0,0.3-0.1c0.1-0.1,0.1-0.2,0.1-0.3C81.8,15.3,81.3,15.4,81.1,15.3"/>
		<path fill="#FFFFFF" d="M93,14.6l-0.3,0c-0.1,0-0.1,0-0.2,0c-0.6,0-0.6-0.2-0.6-0.8c0-0.2,0-0.4,0-0.6V6.6c0-0.1,0-0.2,0-0.3
			c0-0.1,0-0.2-0.1-0.3C91.8,6,91.7,6,91.6,6H89h-0.1c-0.1,0-0.1,0-0.2,0.1c-0.1,0-0.1,0.1-0.1,0.2c0,0.4,0.6,0.4,0.7,0.4
			c0.8,0,0.9,0.3,0.9,0.9c0,0.2,0,0.5,0,0.7v4.3c0,0.2,0,0.3,0,0.5c0,0.4,0,0.7-0.4,1.1c-0.6,0.7-1.4,1-2.3,1c-0.8,0-1.7-0.3-2.1-1
			C85,13.6,85,12.5,85,11.7V6.9c0-0.1,0-0.2,0-0.3c0-0.1,0-0.3-0.1-0.4C84.8,6,84.7,6,84.5,6H82c-0.1,0-0.1,0-0.2,0
			c0,0-0.1,0-0.2,0.1c-0.1,0-0.1,0.1-0.1,0.2c0,0.4,0.5,0.4,0.7,0.4c0.9,0,0.9,0.3,0.9,1c0,0.2,0,0.5,0,0.7v3.4v0.4c0,1,0,2,0.7,2.8
			c0.7,0.9,1.6,1.3,2.7,1.3c1,0,1.8-0.4,2.4-0.8c0.5-0.4,1-0.8,1-0.8c0,0,0,0,0.1,0.1c0,0.1,0,0.2,0,0.3c0,0.2,0,0.4,0,0.4V16
			c0,0.1,0,0.1,0,0.2c0,0.1,0.1,0.1,0.2,0.1h0c0.1,0,0.3-0.1,0.3-0.1c0.6-0.5,1.4-0.7,2.2-1c0.1-0.1,0.5-0.1,0.5-0.4
			C93.4,14.6,93.1,14.6,93,14.6"/>
		<path fill="#FFFFFF" d="M100.5,5.8c-0.8,0-1.4,0.5-1.9,0.9C98.4,7,98.2,7.2,98,7.4c-0.1,0.1-0.1,0.1-0.2,0.2c0,0,0,0,0,0
			c0,0,0-0.1,0-0.2c0-0.1,0-0.1,0-0.2V6.2V6.1c0-0.1,0-0.2,0-0.2c0-0.1-0.1-0.1-0.3-0.1c-0.3,0-0.4,0.2-0.5,0.3
			c-0.3,0.4-1.3,1-1.8,1.1c-0.2,0.1-0.6,0.1-0.6,0.5c0,0.2,0.2,0.3,0.4,0.3h0.3c0.2,0,0.5,0,0.6,0.1c0.2,0.1,0.2,0.8,0.2,1.2v0.2
			v4.2c0,0.2,0,0.5,0,0.7c0,0.6-0.1,1-0.9,1c-0.1,0-0.3,0-0.4,0c-0.1,0-0.3,0.2-0.3,0.4c0,0.3,0.3,0.3,0.4,0.3
			c0.7,0,1.4-0.1,2.1-0.1c0.7,0,1.4,0.1,2.1,0.1c0.1,0,0.2,0,0.3-0.1c0.1-0.1,0.1-0.2,0.1-0.3c0-0.4-0.5-0.4-0.7-0.4
			c-0.9-0.1-0.9-0.4-0.9-1c0-0.2,0-0.4,0-0.7v-3.5V9.9c0-0.8,0-1.3,0.5-2c0.3-0.3,0.6-0.8,1.1-0.8c0.5,0,0.6,0.8,1.4,0.8
			c0.6,0,1-0.4,1-1C101.8,6.3,101.2,5.8,100.5,5.8"/>
	</g>
	<g>
		<path fill="#FFFFFF" d="M10.5,24.8c0.3,0,0.3-0.4,0.3-0.6c0-0.2,0-0.3,0-0.4v-1.6c0-0.1,0-0.2,0-0.3c0-0.1,0-0.3-0.1-0.4
			c-0.1-0.1-0.2-0.2-0.4-0.2c-2.5,0-4.9,0.1-7.4,0.1c-0.7,0-1.3-0.1-2-0.1c-0.2,0-0.5,0.1-0.5,0.4c0,0.4,0.5,0.4,0.7,0.4
			c1.3,0,1.3,0.2,1.3,1.3c0,0.1,0,0.3,0,0.4v9.2c0,0.2,0,0.3,0,0.5c0,1,0,1.2-1.3,1.3H1.1c-0.2,0-0.6,0-0.6,0.4
			c0,0.1,0.1,0.3,0.2,0.3c0.1,0.1,0.2,0.1,0.3,0.1c0.8,0,1.6-0.1,2.4-0.1c0.8,0,1.6,0.1,2.4,0.1c0.1,0,0.2,0,0.3-0.1
			c0.1-0.1,0.2-0.2,0.2-0.3c0-0.4-0.4-0.4-0.6-0.4H5.6c-1.3-0.1-1.3-0.2-1.3-1.3c0-0.1,0-0.3,0-0.4v-4.2c0-0.4,0.1-0.5,0.2-0.6
			c0.1-0.1,0.4-0.1,0.8-0.1c0.6,0,1.8,0,2.6,0.2c0.4,0.1,0.6,0.7,0.7,1.3c0,0.1,0.1,0.4,0.4,0.5c0.1,0,0.2,0,0.2-0.1
			c0.1-0.1,0.1-0.2,0.1-0.4c0-0.7-0.1-1.4-0.1-2.1c0-0.6,0.1-1.3,0.1-1.9c0-0.3-0.2-0.3-0.3-0.3c-0.3,0-0.4,0.3-0.4,0.5
			c-0.1,0.7-0.3,1.4-0.7,1.5c-0.6,0.1-1.3,0.1-1.9,0.1c-0.2,0-0.5,0-0.6,0c-0.9,0-0.9,0.1-1-0.9v-3.2c0-0.1,0-0.1,0-0.2
			c0-0.3,0-0.7,0.2-0.8c0.3-0.1,1.4-0.2,1.8-0.1c1.9,0,3.1,0,3.7,2.1C10.1,24.4,10.1,24.8,10.5,24.8"/>
		<path fill="#FFFFFF" d="M15.2,25.8c2.3,0,3.4,2.5,3.4,4.7c0,2.1-1.2,4.6-3.3,4.6c-1.1,0-2-0.7-2.6-1.6c-0.6-0.9-0.9-2.2-0.9-3.3
			C11.8,28,13.1,25.8,15.2,25.8 M15.2,25.2c-1.4,0-2.7,0.5-3.8,1.5c-0.9,0.9-1.4,2.3-1.4,3.7c0,3.1,2.3,5.4,5.2,5.4
			c2.8,0,5.2-2.3,5.2-5.4c0-1.5-0.6-2.9-1.6-3.9C17.8,25.6,16.5,25.2,15.2,25.2"/>
		<path fill="#FFFFFF" d="M31.6,34.1l-0.3,0c-0.1,0-0.1,0-0.2,0c-0.6,0-0.6-0.2-0.6-0.8c0-0.2,0-0.4,0-0.6v-6.6c0-0.1,0-0.2,0-0.3
			c0-0.1,0-0.2-0.1-0.3c-0.1-0.1-0.2-0.1-0.3-0.1h-2.5c0,0-0.1,0-0.1,0c-0.1,0-0.1,0-0.2,0.1c-0.1,0.1-0.1,0.1-0.1,0.2
			c0,0.4,0.5,0.4,0.7,0.4c0.8,0,0.8,0.3,0.9,1c0,0.2,0,0.5,0,0.7v4.3c0,0.2,0,0.3,0,0.5c0,0.4,0,0.7-0.4,1.1c-0.6,0.7-1.3,1-2.2,1
			c-0.8,0-1.7-0.3-2.1-1c-0.4-0.6-0.4-1.7-0.4-2.4v-4.8c0-0.1,0-0.2,0-0.3c0-0.1,0-0.3-0.1-0.4c-0.1-0.1-0.2-0.2-0.4-0.2h-2.4
			c0,0-0.1,0-0.2,0c-0.1,0-0.1,0-0.2,0c-0.1,0.1-0.1,0.1-0.1,0.2c0,0.4,0.5,0.4,0.7,0.4c0.8,0,0.8,0.4,0.9,1c0,0.2,0,0.5,0,0.7v3.4
			c0,0.1,0,0.3,0,0.4c0,1,0,2,0.7,2.9c0.6,0.9,1.5,1.3,2.6,1.3c1,0,1.8-0.4,2.3-0.8c0.5-0.4,0.9-0.8,1-0.8c0,0,0,0,0,0.1
			c0,0.1,0,0.2,0,0.3c0,0.2,0,0.4,0,0.4v0.5c0,0.1,0,0.1,0,0.2c0,0.1,0.1,0.1,0.2,0.1l0,0c0.2,0,0.3-0.1,0.3-0.1
			c0.6-0.5,1.4-0.7,2.1-1c0.1,0,0.5-0.1,0.5-0.4C32,34.1,31.8,34.1,31.6,34.1"/>
		<path fill="#FFFFFF" d="M44.3,34.9c-0.1,0-0.3,0-0.4-0.1c-0.8-0.1-0.9-0.4-0.9-1c0-0.2,0-0.4,0-0.7v-3.5v-0.4c0-1,0-1.9-0.7-2.8
			c-0.6-0.8-1.5-1.3-2.6-1.3c-1,0-1.8,0.5-2.4,0.9c-0.4,0.3-0.8,0.7-1,0.8v-1.3v-0.1c0-0.1,0-0.4-0.3-0.4c-0.3,0-0.4,0.2-0.5,0.3
			c-0.3,0.4-1.2,1-1.7,1.1c-0.2,0.1-0.6,0.1-0.6,0.5c0,0.2,0.2,0.3,0.4,0.3h0.3c0.2,0,0.5,0,0.5,0.1c0.2,0.1,0.2,0.8,0.2,1.2v0.2
			v4.2c0,0.2,0,0.5,0,0.7c0,0.6-0.1,1-0.9,1c-0.1,0-0.3,0-0.4,0c-0.1,0-0.3,0.2-0.3,0.4c0,0.3,0.3,0.3,0.4,0.3c0.7,0,1.4-0.1,2-0.1
			c0.6,0,1.3,0.1,2,0.1c0.1,0,0.2,0,0.3-0.1c0.1-0.1,0.1-0.2,0.1-0.3c0-0.2-0.2-0.3-0.3-0.4c-0.1,0-0.3,0-0.4-0.1
			c-0.8-0.1-0.9-0.4-0.9-1c0-0.2,0-0.4,0-0.7v-3.8c0-0.9,0.1-1.3,0.7-2c0.5-0.6,1.3-0.9,2.1-0.9c0.8,0,1.5,0.3,1.9,1
			c0.4,0.6,0.4,1.4,0.4,2.2v3.6c0,0.2,0,0.5,0,0.7c0,0.6-0.1,1-0.9,1c-0.1,0-0.3,0-0.4,0c-0.1,0-0.3,0.2-0.3,0.4
			c0,0.3,0.2,0.3,0.4,0.3c0.7,0,1.4-0.1,2-0.1c0.6,0,1.3,0.1,2,0.1c0.1,0,0.2,0,0.3-0.1c0.1-0.1,0.1-0.2,0.1-0.3
			C44.6,35.1,44.4,34.9,44.3,34.9"/>
		<path fill="#FFFFFF" d="M50.5,34.6c-2.3,0-3.6-2.2-3.6-4.4c0-2.2,1.4-4.1,3.7-4.4c0.1,0,0.1,0,0.2,0h0c0.7,0,1.5,0.3,1.9,0.7
			c0.5,0.4,0.5,1.1,0.5,1.7v0.3h0v4c0,0.1,0,0.3,0,0.4c0,0.3,0,0.4-0.2,0.7C52.4,34.3,51.4,34.6,50.5,34.6 M56.1,33.6
			c-0.2,0-0.3,0.2-0.5,0.4c-0.2,0.2-0.4,0.4-0.5,0.4c-0.1,0-0.1,0-0.2-0.2c0-0.1-0.1-0.3-0.1-0.5c0-0.1,0-0.3,0-0.4V20.1V20
			c0-0.1,0-0.2,0-0.2c0-0.1-0.1-0.1-0.3-0.1c-0.2,0-0.4,0.2-0.5,0.3c-0.5,0.3-1.3,0.6-1.9,0.7c-0.1,0-0.4,0.1-0.4,0.3
			c0,0.3,0.3,0.3,0.4,0.3c0.1,0,0.2,0,0.2,0c0.7,0,0.7,0.4,0.7,1c0,0.2,0,0.5,0,0.7l0,2.1c0,0.1,0,0.2,0,0.3c0,0.1,0,0.2,0,0.3
			c0,0.1,0,0.1,0,0.1c-0.1,0-0.3-0.1-0.4-0.1c-0.7-0.3-1.5-0.4-2.3-0.5h-0.2c-1.3,0-2.6,0.7-3.6,1.6c-1,1-1.5,2.2-1.5,3.7
			c0,2.7,1.9,5.3,4.7,5.3c0.9,0,1.7-0.4,2.2-0.8c0.6-0.4,1-0.8,1.1-0.7c0,0,0,0,0,0c0.1,0.1,0.1,0.5,0.1,0.6c0,0.1,0,0.2,0,0.4
			c0,0.1,0.1,0.3,0.3,0.4c0.2,0,0.4-0.2,0.5-0.2l1.7-0.7c0.2-0.1,0.4-0.2,0.4-0.5l0-0.3c0,0,0-0.1,0-0.1
			C56.3,33.8,56.3,33.6,56.1,33.6"/>
		<path fill="#FFFFFF" d="M63.1,30.5c0,0.1,0,0.2,0,0.2v1.3c0,0.7,0,1.1-0.5,1.6c-0.5,0.5-1.2,0.9-1.9,0.9c-0.8,0-1.4-0.4-1.4-1.2
			c0-1,0.8-1.6,1.6-2l1.9-1c0.1,0,0.2-0.1,0.2-0.1c0,0,0,0,0,0.1C63.1,30.3,63.1,30.4,63.1,30.5 M66.4,33.9c-0.2,0-0.3,0.2-0.4,0.3
			c-0.1,0.1-0.3,0.2-0.5,0.2c-0.3,0-0.4-0.2-0.5-0.6c-0.1-0.3-0.1-0.8-0.1-1v-0.1v-5.3c0-0.2,0-0.3,0-0.4c0-0.4,0-0.9-0.5-1.3
			c-0.5-0.5-1.3-0.6-2-0.6c-1.4,0-2.9,0.6-3.9,1.6c-0.4,0.4-0.9,1-0.9,1.7c0,0.1,0,0.2,0.1,0.3c0.1,0.1,0.2,0.1,0.3,0.1
			c0.3,0,0.8-0.2,1-0.3c0.4-0.2,0.5-0.5,0.6-0.8c0.5-1.1,1.1-1.8,2.4-1.8c1.2,0,1.2,0.8,1.3,1.9v1c0,0.9,0,0.7-0.7,1.2l-1.6,0.8
			c-1.2,0.6-3.2,1.5-3.2,3.2c0,1.2,1.1,1.9,2.1,1.9c1,0,1.8-0.4,2.4-0.9c0.3-0.2,0.6-0.4,0.7-0.6c0.1-0.1,0.2-0.2,0.2-0.2
			c0,0,0.1,0,0.1-0.1l0,0c0,0,0,0,0,0c0.2,0.2,0.4,1.5,1.4,1.5c0.6,0,1.2-0.4,1.6-0.7c0.2-0.2,0.5-0.4,0.6-0.8
			C66.6,34.1,66.5,33.9,66.4,33.9"/>
		<path fill="#FFFFFF" d="M72.6,34c-0.2,0-0.3,0.2-0.6,0.4c-0.3,0.2-0.6,0.4-0.9,0.4c-0.6,0-0.8-0.3-1-0.8c-0.2-0.5-0.2-1.1-0.2-1.6
			v-0.1v-5.7c0-0.4,0.1-0.4,0.3-0.4c0.1,0,0.2,0,0.4,0h1.2c0.2,0,0.3,0,0.4,0c0.1,0,0.2,0,0.3-0.1c0.1-0.1,0.1-0.2,0.1-0.4
			c0-0.1,0-0.2,0-0.3c0-0.1-0.2-0.2-0.3-0.2h-2.1c-0.2,0-0.2,0-0.2-0.3v-1.6c0-0.1,0-0.4-0.3-0.4c-0.2,0-0.3,0.2-0.3,0.3
			c-0.5,1.1-1.1,1.6-2,2.2c-0.1,0.1-0.3,0.2-0.3,0.4c0,0.3,0.3,0.3,0.5,0.3c0.1,0,0.3,0,0.3,0c0.1,0,0.2,0,0.2,0
			c0.2,0,0.2-0.1,0.2,0.3v5.7c0,0.2,0,0.4,0,0.7c0,0.7,0,1.6,0.5,2.2c0.4,0.5,1,0.7,1.6,0.7c0.8,0,1.5-0.4,2.1-0.9
			c0.2-0.1,0.5-0.4,0.5-0.7C72.8,34.1,72.8,34,72.6,34"/>
		<path fill="#FFFFFF" d="M76,23.5c0.7,0,1-0.6,1-1.2c0-0.6-0.4-1.2-1-1.2c-0.7,0-1.1,0.6-1.1,1.2C75,22.9,75.4,23.5,76,23.5"/>
		<path fill="#FFFFFF" d="M78.2,34.9c-0.1,0-0.3,0-0.4-0.1c-0.8-0.1-0.9-0.4-0.9-1c0-0.2,0-0.4,0-0.7h0v-7.5c0,0,0,0,0-0.1
			c0-0.1,0-0.4-0.3-0.4c-0.3,0-0.4,0.2-0.5,0.3c-0.3,0.4-1.3,1-1.7,1.1c-0.2,0.1-0.6,0.1-0.6,0.5c0,0.2,0.2,0.3,0.4,0.3h0.3
			c0.2,0,0.5,0,0.5,0.1c0.2,0.1,0.2,0.8,0.2,1.2c0,0.1,0,0.1,0,0.2l0,4.2c0,0.2,0,0.5,0,0.7c0,0.6-0.1,1-0.9,1c-0.1,0-0.3,0-0.4,0
			c-0.1,0-0.3,0.2-0.3,0.4c0,0.3,0.3,0.3,0.4,0.3c0.7,0,1.4-0.1,2-0.1c0.6,0,1.3,0.1,2,0.1c0.1,0,0.2,0,0.3-0.1
			c0.1-0.1,0.1-0.2,0.1-0.3C78.5,35.1,78.3,34.9,78.2,34.9"/>
		<path fill="#FFFFFF" d="M87.6,30.6c0,2.1-1.2,4.6-3.3,4.6c-1.1,0-2-0.7-2.6-1.6c-0.6-0.9-0.9-2.2-0.9-3.3c0-2.3,1.2-4.5,3.4-4.5
			C86.4,25.9,87.6,28.3,87.6,30.6 M84.2,25.2c-1.4,0-2.7,0.5-3.7,1.5C79.5,27.7,79,29,79,30.4c0,3.1,2.4,5.4,5.2,5.4
			c2.8,0,5.2-2.3,5.2-5.4c0-1.5-0.6-2.9-1.6-3.9C86.7,25.6,85.4,25.2,84.2,25.2"/>
		<path fill="#FFFFFF" d="M101.2,34.9c-0.1,0-0.3,0-0.4-0.1c-0.8-0.1-0.9-0.4-0.9-1c0-0.2,0-0.4,0-0.7v-3.5v-0.4c0-1,0-1.9-0.7-2.8
			c-0.6-0.8-1.5-1.3-2.6-1.3c-1,0-1.8,0.5-2.4,0.9c-0.4,0.3-0.8,0.7-1,0.8v-1.3v-0.1c0-0.1,0-0.4-0.3-0.4c-0.3,0-0.4,0.2-0.5,0.3
			c-0.3,0.4-1.2,1-1.7,1.1c-0.2,0.1-0.6,0.1-0.6,0.5c0,0.2,0.2,0.3,0.4,0.3h0.3c0.2,0,0.5,0,0.5,0.1c0.1,0.1,0.2,0.8,0.2,1.2v0.2
			v4.2c0,0.2,0,0.5,0,0.7c0,0.6-0.1,1-0.9,1c-0.1,0-0.3,0-0.4,0c-0.1,0-0.3,0.2-0.3,0.4c0,0.3,0.2,0.3,0.4,0.3c0.7,0,1.4-0.1,2-0.1
			c0.6,0,1.3,0.1,2,0.1c0.1,0,0.2,0,0.3-0.1c0.1-0.1,0.1-0.2,0.1-0.3c0-0.2-0.2-0.3-0.3-0.4c-0.1,0-0.3,0-0.4-0.1
			c-0.8-0.1-0.9-0.4-0.9-1c0-0.2,0-0.4,0-0.7v-3.8c0-0.9,0.1-1.3,0.7-2c0.5-0.6,1.3-0.9,2-0.9c0.8,0,1.5,0.3,1.9,1
			c0.4,0.6,0.4,1.4,0.4,2.2v3.6c0,0.2,0,0.5,0,0.7c0,0.6-0.1,1-0.9,1c-0.1,0-0.3,0-0.4,0c-0.1,0-0.3,0.2-0.3,0.4
			c0,0.3,0.2,0.3,0.4,0.3c0.7,0,1.4-0.1,2-0.1c0.6,0,1.3,0.1,2,0.1c0.1,0,0.2,0,0.3-0.1c0.1-0.1,0.1-0.2,0.1-0.3
			C101.5,35.1,101.3,34.9,101.2,34.9"/>
	</g>
</g>
</svg>
