<?xml version="1.0" encoding="utf-8"?>
<!-- Generator: Adobe Illustrator 19.2.1, SVG Export Plug-In . SVG Version: 6.00 Build 0)  -->
<svg version="1.1" baseProfile="tiny" id="Layer_1" xmlns="http://www.w3.org/2000/svg" xmlns:xlink="http://www.w3.org/1999/xlink"
	 x="0px" y="0px" width="217.4px" height="36px" viewBox="0 0 217.4 36" xml:space="preserve">
<g>
	<g>
		<path fill="#FFFFFF" d="M42.8,26.9v-1.7c0.4-0.1,0.7-0.1,1.1-0.2l-4.3-5.1v5.1c0.4,0,1,0.1,1.4,0.3v1.7h-6v-1.7
			c0.6-0.1,1.2-0.2,1.8-0.3V14.6c-0.6,0-1.3-0.1-1.8-0.3v-1.7h6v1.7c-0.4,0.1-1,0.2-1.4,0.3v4.7l4.2-4.8c-0.3,0-0.8-0.1-1.1-0.2
			v-1.7h5.8v1.7c-0.4,0.1-0.9,0.2-1.3,0.2l-4.5,4.9l4.8,5.5c0.4,0,0.9,0.1,1.3,0.2v1.7H42.8z"/>
		<path fill="#FFFFFF" d="M57.9,26.9v-6.7c0-1.1-0.3-1.7-1.3-1.7c-1.4,0-2.5,1.5-2.5,3.4v3.1c0.5,0,1.1,0.1,1.5,0.3v1.7h-6.1v-1.7
			c0.6-0.1,1.2-0.2,1.8-0.3v-6.5c-0.5-0.1-1.2-0.2-1.8-0.2v-1.7c1.4-0.2,3-0.2,4.4-0.2c0,0.5,0,1.3-0.1,1.9h0
			c0.6-1.2,1.9-2.1,3.6-2.1c2.4,0,3.1,1.5,3.1,3.3v5.4c0.6,0,1.2,0.1,1.7,0.3v1.7H57.9z"/>
		<path fill="#FFFFFF" d="M62.9,26.9v-1.7c0.6-0.1,1.2-0.2,1.8-0.3v-6.5c-0.5-0.1-1.2-0.2-1.8-0.2v-1.7c1.4-0.2,3-0.2,4.6-0.2v8.6
			c0.6,0,1.2,0.1,1.7,0.3v1.7H62.9z M66.1,14.8c-0.9,0-1.7-0.7-1.7-1.6c0-0.9,0.8-1.7,1.7-1.7c0.9,0,1.7,0.7,1.7,1.7
			C67.8,14.1,67,14.8,66.1,14.8z"/>
		<path fill="#FFFFFF" d="M74.4,32.2c-2.8,0-4.5-1.1-4.5-3.1c0-1.1,0.8-2.1,1.6-2.6c-0.6-0.3-1-0.9-1-1.6c0-0.8,0.5-1.6,1.2-1.9
			c-1-0.5-1.6-1.5-1.6-2.9c0-2.1,1.6-4,4.6-4c0.7,0,1.1,0.1,1.7,0.2h3.6v2.1h-1.4c0.3,0.3,0.5,0.8,0.5,1.3c0,2.2-1.5,3.8-4.5,3.8
			c-0.3,0-0.5,0-0.8-0.1c-0.3,0.1-0.5,0.4-0.5,0.7c0,0.5,0.4,0.6,1.6,0.7l1.6,0.1c2.3,0.1,3.6,1.1,3.6,3.1
			C80.2,30.3,77.9,32.2,74.4,32.2z M75.9,27L74,27h-0.5c-0.6,0.4-1,1-1,1.6c0,1,0.9,1.6,2.2,1.6c1.8,0,2.7-0.8,2.7-1.8
			C77.5,27.6,77,27.1,75.9,27z M74.7,18.1c-1.2,0-1.9,0.8-1.9,1.8c0,1.1,0.7,1.8,1.9,1.8c1.2,0,1.9-0.7,1.9-1.8
			C76.6,18.9,76,18.1,74.7,18.1z"/>
		<path fill="#FFFFFF" d="M88.9,26.9v-6.7c0-1.1-0.3-1.7-1.3-1.7c-1.4,0-2.5,1.5-2.5,3.4v3.1c0.5,0,1.1,0.1,1.5,0.3v1.7h-5.9v-1.7
			c0.5-0.1,1.1-0.2,1.7-0.3V13.5c-0.5-0.1-1.2-0.2-1.8-0.2v-1.7c1.3-0.2,2.9-0.2,4.5-0.2V16c0,0.6,0,1.5-0.2,2.1h0
			c0.6-1.2,1.8-1.9,3.5-1.9c2.4,0,3.1,1.5,3.1,3.3v5.4c0.6,0,1.2,0.1,1.7,0.3v1.7H88.9z"/>
		<path fill="#FFFFFF" d="M98.4,27.1c-2.3,0-3-0.8-3-3.3v-5.3h-1.8v-2.1h1.8v-3.2l2.7-0.7v4h2.6v2.1h-2.6v4.6c0,1.4,0.3,1.7,1.2,1.7
			c0.4,0,0.8,0,1.2-0.1l0.2,2.1C100,27,99.2,27.1,98.4,27.1z"/>
		<path fill="#FFFFFF" d="M113.7,16.3c-0.1-0.5-0.2-1-0.2-1.5h-2.9v3.9h2.4c0-0.4,0.1-0.8,0.2-1.2h1.8V22h-1.8
			c-0.1-0.4-0.2-0.7-0.2-1.2h-2.4v4.1c0.6,0,1.3,0.1,1.8,0.3v1.7H106v-1.7c0.5-0.1,1.2-0.2,1.8-0.3V14.6c-0.6,0-1.3-0.1-1.8-0.3
			v-1.7h9.7v3.7H113.7z"/>
		<path fill="#FFFFFF" d="M121.8,27.1c-3,0-4.9-1.5-4.9-5.2c0-3.3,2.2-5.7,5.4-5.7c3,0,4.9,1.6,4.9,5.3
			C127.2,24.7,125,27.1,121.8,27.1z M122.1,18.5c-1.2,0-2.4,0.9-2.4,3.2c0,2.1,0.8,3.2,2.3,3.2c1.3,0,2.4-1.1,2.4-3.2
			C124.4,19.6,123.6,18.5,122.1,18.5z"/>
		<path fill="#FFFFFF" d="M136.3,26.9c0-0.5,0-1.3,0.1-1.9h0c-0.6,1.2-1.8,2.1-3.6,2.1c-2.4,0-3.2-1.5-3.2-3.3v-5.3
			c-0.5-0.1-1.1-0.2-1.7-0.2v-1.7c1.2-0.1,2.8-0.2,4.4-0.2v6.8c0,1.1,0.3,1.7,1.3,1.7c1.4,0,2.5-1.5,2.5-3.4v-3
			c-0.4-0.1-1-0.1-1.5-0.2v-1.7c1.2-0.1,2.8-0.2,4.2-0.1v8.5c0.5,0.1,1.2,0.2,1.7,0.2v1.7C139.3,26.9,137.7,27,136.3,26.9z"/>
		<path fill="#FFFFFF" d="M149.4,26.9v-6.7c0-1.1-0.3-1.7-1.3-1.7c-1.4,0-2.5,1.5-2.5,3.4v3.1c0.5,0,1.1,0.1,1.5,0.3v1.7h-6.1v-1.7
			c0.6-0.1,1.2-0.2,1.8-0.3v-6.5c-0.5-0.1-1.2-0.2-1.8-0.2v-1.7c1.4-0.2,3-0.2,4.4-0.2c0,0.5,0,1.3-0.1,1.9h0
			c0.6-1.2,1.9-2.1,3.6-2.1c2.4,0,3.1,1.5,3.1,3.3v5.4c0.6,0,1.2,0.1,1.7,0.3v1.7H149.4z"/>
		<path fill="#FFFFFF" d="M161.7,26.9c0-0.5,0-1.2,0.1-1.8h0c-0.6,1.2-1.7,2-3.3,2c-2.6,0-3.8-1.9-3.8-4.9c0-3.6,2.1-6,5.6-6
			c0.4,0,0.9,0,1.3,0.1v-2.8c-0.5-0.1-1.2-0.2-1.8-0.2v-1.7c1.3-0.2,3-0.2,4.5-0.2v13.4c0.5,0.1,1.2,0.2,1.7,0.2v1.7
			C164.7,26.9,163.1,27,161.7,26.9z M161.5,18.5c-0.5-0.1-1-0.2-1.4-0.2c-1.5,0-2.6,1-2.6,3.6c0,2,0.6,3,1.8,3
			c1.4,0,2.3-1.7,2.3-3.4V18.5z"/>
		<path fill="#FFFFFF" d="M173,26.9c0-0.6,0-1.2,0.1-1.8l0,0c-0.5,1.2-1.8,2-3.4,2c-1.9,0-3-1.2-3-2.9c0-2.5,2.5-3.7,6.1-3.7v-0.6
			c0-1.1-0.4-1.8-1.9-1.8c-0.5,0-1.1,0.1-1.5,0.3c0,0.4-0.1,0.9-0.2,1.4h-1.7v-3.1c1.1-0.3,2.4-0.5,3.6-0.5c3.5,0,4.4,1.4,4.4,3.7v5
			c0.5,0.1,1.2,0.2,1.7,0.2v1.7C176,26.9,174.4,27,173,26.9z M172.8,22.2c-2.4,0-3.5,0.5-3.5,1.6c0,0.7,0.5,1.2,1.3,1.2
			c1.3,0,2.2-1.2,2.2-2.5V22.2z"/>
		<path fill="#FFFFFF" d="M182.3,27.1c-2.3,0-3-0.8-3-3.3v-5.3h-1.8v-2.1h1.8v-3.2l2.7-0.7v4h2.6v2.1h-2.6v4.6
			c0,1.4,0.3,1.7,1.2,1.7c0.4,0,0.8,0,1.2-0.1l0.2,2.1C183.9,27,183,27.1,182.3,27.1z"/>
		<path fill="#FFFFFF" d="M185.5,26.9v-1.7c0.6-0.1,1.2-0.2,1.8-0.3v-6.5c-0.5-0.1-1.2-0.2-1.8-0.2v-1.7c1.4-0.2,3-0.2,4.6-0.2v8.6
			c0.6,0,1.2,0.1,1.7,0.3v1.7H185.5z M188.7,14.8c-0.9,0-1.7-0.7-1.7-1.6c0-0.9,0.8-1.7,1.7-1.7c0.9,0,1.7,0.7,1.7,1.7
			C190.4,14.1,189.6,14.8,188.7,14.8z"/>
		<path fill="#FFFFFF" d="M197.5,27.1c-3,0-4.9-1.5-4.9-5.2c0-3.3,2.2-5.7,5.4-5.7c3,0,4.9,1.6,4.9,5.3
			C202.9,24.7,200.7,27.1,197.5,27.1z M197.8,18.5c-1.2,0-2.4,0.9-2.4,3.2c0,2.1,0.8,3.2,2.3,3.2c1.3,0,2.4-1.1,2.4-3.2
			C200.1,19.6,199.3,18.5,197.8,18.5z"/>
		<path fill="#FFFFFF" d="M212.2,26.9v-6.7c0-1.1-0.3-1.7-1.3-1.7c-1.4,0-2.5,1.5-2.5,3.4v3.1c0.5,0,1.1,0.1,1.5,0.3v1.7h-6.1v-1.7
			c0.5-0.1,1.2-0.2,1.8-0.3v-6.5c-0.5-0.1-1.2-0.2-1.8-0.2v-1.7c1.4-0.2,3-0.2,4.4-0.2c0,0.5,0,1.3-0.1,1.9h0
			c0.6-1.2,1.9-2.1,3.6-2.1c2.4,0,3.1,1.5,3.1,3.3v5.4c0.6,0,1.2,0.1,1.7,0.3v1.7H212.2z"/>
	</g>
	<g>
		<polygon fill="#FFFFFF" points="0.8,3.8 8,3.8 0.8,14.8 8,26.8 0.8,26.8 		"/>
		<polygon fill="#FFFFFF" points="14.1,3.8 27.1,3.8 27.1,8.5 14.1,8.5 14.1,12.6 27.1,12.6 27.1,17.3 14.1,17.3 14.1,26.8 
			6.4,14.8 		"/>
	</g>
</g>
</svg>
